# xmcd
#
# Track frame offsets:
# 150
# 17135
# 34533
# 49210
# 65577
# 84009
# 99488
# 119202
# 137469
# 152564
# 169404
# 185299
# 199992
# 214282
# 233299
# 249998
# 266364
#
# Disc length: 3830 seconds
#
#
# Revision: 0
# Processed by: cddbd v1.5.1PL2 Copyright (c) Steve Scherf et al.
# Submitted via: FreeRIP 2.90 
#
DISCID=e10ef411
DTITLE=Alcimar Monteiro - O Verdadeiro Forró
DYEAR=1900
DGENRE=Forró
TTITLE0=Sem Ela
TTITLE1=Miragem
TTITLE2=Meu Primeiro Amor
TTITLE3=Cavaleiro Alado
TTITLE4=Vivencia
TTITLE5=O Forro Sou Eu
TTITLE6=Pout-Pourri I
TTITLE7=O Verdadeiro Forro
TTITLE8=Pout-Pouri II
TTITLE9=Estrela Cadente
TTITLE10=Casinha No Pe Da Serra
TTITLE11=Feira Da Sulanca
TTITLE12=Olhos Verdes Canaviais
TTITLE13=Da Cor Do Chao
TTITLE14=Sao Joao Brasileiro
TTITLE15=Industria Da Seca
TTITLE16=Espiritismo
EXTD=
EXTT0=
EXTT1=
EXTT2=
EXTT3=
EXTT4=
EXTT5=
EXTT6=
EXTT7=
EXTT8=
EXTT9=
EXTT10=
EXTT11=
EXTT12=
EXTT13=
EXTT14=
EXTT15=
EXTT16=
PLAYORDER=
